<svg width="338" height="45" viewBox="0 0 338 45" fill="none" xmlns="http://www.w3.org/2000/svg">
<g filter="url(#filter0_b_2_56)">
<rect width="338" height="45" rx="10" fill="#FEE500"/>
<rect x="0.5" y="0.5" width="337" height="44" rx="9.5" stroke="black"/>
<g clip-path="url(#clip0_2_56)">
<path fill-rule="evenodd" clip-rule="evenodd" d="M124 14.1C119.029 14.1 115 17.213 115 21.0523C115 23.44 116.558 25.545 118.932 26.797L117.933 30.4445C117.845 30.7668 118.213 31.0237 118.496 30.8369L122.873 27.9482C123.243 27.9839 123.618 28.0047 124 28.0047C128.97 28.0047 133 24.8918 133 21.0523C133 17.213 128.97 14.1 124 14.1Z" fill="black"/>
</g>
<path d="M148.215 16.215C148.2 20.79 146.115 23.85 142.29 25.86L141.3 24.75C143.235 23.865 144.855 22.44 145.77 20.595L141.855 21.015L141.615 19.68L146.28 19.335C146.445 18.735 146.565 18.12 146.61 17.46H142.29V16.215H148.215ZM151.83 14.82V20.04H153.9V21.315H151.83V28.185H150.285V14.82H151.83ZM161.193 16.215C161.178 20.79 159.093 23.85 155.268 25.86L154.278 24.75C156.213 23.865 157.833 22.44 158.748 20.595L154.833 21.015L154.593 19.68L159.258 19.335C159.423 18.735 159.543 18.12 159.588 17.46H155.268V16.215H161.193ZM164.808 14.82V20.04H166.878V21.315H164.808V28.185H163.263V14.82H164.808ZM179.482 26.475H167.407V25.245H172.657V22.965C170.182 22.725 168.607 21.315 168.607 19.32C168.607 17.115 170.542 15.645 173.437 15.645C176.377 15.645 178.297 17.115 178.297 19.32C178.297 21.33 176.692 22.74 174.187 22.98V25.245H179.482V26.475ZM176.752 19.335C176.752 17.91 175.447 16.905 173.437 16.905C171.472 16.905 170.152 17.91 170.152 19.335C170.152 20.745 171.472 21.705 173.437 21.705C175.432 21.705 176.752 20.745 176.752 19.335ZM195.231 23.025H191.106V25.26H196.401V26.49H184.326V25.26H189.576V23.025H185.871V18.705H193.311V16.98H185.826V15.75H194.841V19.95H187.416V21.78H195.231V23.025ZM209.379 26.235H197.304V24.99H209.379V26.235ZM207.804 16.26C207.804 19.8 207.579 22.305 207.219 24.06L205.704 23.865C206.034 22.53 206.259 19.635 206.259 17.475H198.699V16.26H207.804ZM221.278 24.51H219.748V14.82H221.278V24.51ZM221.593 27.795H212.443V23.595H213.973V26.565H221.593V27.795ZM217.528 19.08C217.528 20.985 216.148 22.35 214.108 22.35C212.068 22.35 210.658 20.985 210.658 19.095C210.658 17.19 212.053 15.81 214.108 15.81C216.148 15.81 217.528 17.175 217.528 19.08ZM215.998 19.08C215.998 17.91 215.278 17.085 214.108 17.085C212.968 17.085 212.203 17.94 212.203 19.08C212.203 20.175 212.968 21.045 214.108 21.045C215.278 21.045 215.998 20.175 215.998 19.08Z" fill="black" fill-opacity="0.85"/>
</g>
<defs>
<filter id="filter0_b_2_56" x="-4" y="-4" width="346" height="53" filterUnits="userSpaceOnUse" color-interpolation-filters="sRGB">
<feFlood flood-opacity="0" result="BackgroundImageFix"/>
<feGaussianBlur in="BackgroundImageFix" stdDeviation="2"/>
<feComposite in2="SourceAlpha" operator="in" result="effect1_backgroundBlur_2_56"/>
<feBlend mode="normal" in="SourceGraphic" in2="effect1_backgroundBlur_2_56" result="shape"/>
</filter>
<clipPath id="clip0_2_56">
<rect width="17.9999" height="18" fill="white" transform="translate(115 13.5)"/>
</clipPath>
</defs>
</svg>
